<svg width="512" height="459" viewBox="0 0 1024 918" fill="none" xmlns="http://www.w3.org/2000/svg">
<path d="M339.438 599.504C339.438 587.956 351.939 580.739 361.939 586.515L733.512 801.117C742.547 806.336 743.614 818.947 735.293 825.243C658.406 883.414 562.631 917.919 458.8 917.919C421.521 917.919 385.281 913.47 350.58 905.076C343.986 903.481 339.438 897.515 339.438 890.73V599.504ZM279.635 413.552C289.635 407.776 302.137 414.993 302.137 426.541V869.053C302.137 879.461 291.792 886.689 282.188 882.679C152.363 828.466 52.765 716.288 15.71 578.471C13.9818 572.043 16.8867 565.301 22.6504 561.973L279.635 413.552ZM760.814 466.099C770.814 460.323 783.316 467.54 783.316 479.088V555.9C783.316 564.185 790.032 570.9 798.316 570.9H884.632C894.393 570.901 901.559 580.084 898.789 589.444C877.638 660.923 839.556 725.128 789.189 777.408C784.502 782.273 777.097 783.205 771.247 779.826L516.921 632.938C506.924 627.164 506.924 612.734 516.921 606.96L760.814 466.099ZM133.264 135.548C137.966 130.812 145.274 129.947 151.054 133.285L398.186 276.017C408.183 281.791 408.183 296.221 398.186 301.995L24.3066 517.93C15.1641 523.21 3.59208 517.637 2.49707 507.136C0.846042 491.303 1.94695e-05 475.23 0 458.96C0 332.791 50.8937 218.513 133.264 135.548ZM458.8 0C496.079 2.16001e-05 532.319 4.44876 567.02 12.8428C573.614 14.4379 578.162 20.403 578.162 27.1875V310.891C578.162 322.439 565.66 329.655 555.66 323.88L189.773 112.562C180.654 107.295 179.673 94.5291 188.171 88.3096C264.039 32.7818 357.592 0 458.8 0Z" fill="black"/>
<path d="M615.463 51.0216C615.463 40.0391 626.86 32.8077 636.766 37.5509C676.692 56.6694 764.17 99.3307 824.347 134.329C884.379 169.244 974.162 213.184 1015.52 233.074C1025.67 237.956 1027.04 251.745 1017.83 258.231C981.166 284.057 901.416 336.624 841.133 350.749C774.938 366.26 665.852 356.371 628.489 352.277C621.001 351.457 615.463 345.115 615.463 337.583V51.0216ZM801.967 194.598C781.366 194.598 764.666 211.303 764.666 231.911C764.666 252.519 781.366 269.225 801.967 269.225C822.568 269.225 839.268 252.519 839.268 231.911C839.268 211.303 822.568 194.598 801.967 194.598Z" fill="black"/>
</svg>
