<svg width="626" height="553" viewBox="0 0 626 553" fill="none" xmlns="http://www.w3.org/2000/svg">
<path d="M428.44 474.771C440.491 481.728 441.883 498.541 430.327 506.293C386.348 535.791 333.434 553 276.5 553C256.953 553 237.879 550.971 219.479 547.113C210.624 545.256 204.565 537.26 204.565 528.213V380.158C204.565 364.762 221.232 355.139 234.565 362.837L428.44 474.771ZM182.086 507.916C182.086 521.792 168.29 531.402 155.808 525.337C86.9882 491.896 34.1227 430.747 11.7186 356.394C9.15772 347.896 13.0712 338.895 20.7582 334.457L152.086 258.635C165.419 250.937 182.086 260.559 182.086 275.955V507.916ZM472.073 323.939C472.073 334.985 481.028 343.939 492.073 343.939H519.084C532.101 343.939 541.661 356.201 537.332 368.476C524.98 403.505 505.772 435.299 481.319 462.247C475.267 468.916 465.363 470.131 457.565 465.629L327.974 390.809C314.64 383.111 314.64 363.866 327.974 356.168L442.073 290.293C455.407 282.595 472.073 292.218 472.073 307.614V323.939ZM223.524 156.791C236.858 164.489 236.858 183.734 223.524 191.432L28.5364 304.009C16.3467 311.047 0.953629 303.592 0.301544 289.532C0.101242 285.213 0 280.868 0 276.5C5.31347e-05 203.449 28.3298 137.015 74.6015 87.5838C80.6813 81.0889 90.454 79.9631 98.1585 84.4113L223.524 156.791ZM276.5 0C296.047 2.01228e-06 315.121 2.0285 333.521 5.88631C342.376 7.74269 348.435 15.7387 348.435 24.7856V168.309C348.435 183.705 331.768 193.328 318.435 185.63L128.208 75.8025C116.045 68.7807 114.772 51.7681 126.565 44.1426C169.759 16.2133 221.236 0 276.5 0Z" fill="#F7AB88"/>
<path d="M428.44 474.771C440.491 481.728 441.883 498.541 430.327 506.293C386.348 535.791 333.434 553 276.5 553C256.953 553 237.879 550.971 219.479 547.113C210.624 545.256 204.565 537.26 204.565 528.213V380.158C204.565 364.762 221.232 355.139 234.565 362.837L428.44 474.771ZM182.086 507.916C182.086 521.792 168.29 531.402 155.808 525.337C86.9882 491.896 34.1227 430.747 11.7186 356.394C9.15772 347.896 13.0712 338.895 20.7582 334.457L152.086 258.635C165.419 250.937 182.086 260.559 182.086 275.955V507.916ZM472.073 323.939C472.073 334.985 481.028 343.939 492.073 343.939H519.084C532.101 343.939 541.661 356.201 537.332 368.476C524.98 403.505 505.772 435.299 481.319 462.247C475.267 468.916 465.363 470.131 457.565 465.629L327.974 390.809C314.64 383.111 314.64 363.866 327.974 356.168L442.073 290.293C455.407 282.595 472.073 292.218 472.073 307.614V323.939ZM223.524 156.791C236.858 164.489 236.858 183.734 223.524 191.432L28.5364 304.009C16.3467 311.047 0.953629 303.592 0.301544 289.532C0.101242 285.213 0 280.868 0 276.5C5.31347e-05 203.449 28.3298 137.015 74.6015 87.5838C80.6813 81.0889 90.454 79.9631 98.1585 84.4113L223.524 156.791ZM276.5 0C296.047 2.01228e-06 315.121 2.0285 333.521 5.88631C342.376 7.74269 348.435 15.7387 348.435 24.7856V168.309C348.435 183.705 331.768 193.328 318.435 185.63L128.208 75.8025C116.045 68.7807 114.772 51.7681 126.565 44.1426C169.759 16.2133 221.236 0 276.5 0Z" fill="#F7BCE6" fill-opacity="0.2"/>
<path d="M370.915 47.9718C370.915 33.3297 386.082 23.6962 399.249 30.1019C426.241 43.2337 467.055 63.6331 496.801 80.927C526.383 98.1257 567.952 118.96 595.752 132.537C609.249 139.128 610.996 157.474 598.476 165.771C573.687 182.199 536.431 204.396 506.917 211.309C471.698 219.559 416.332 215.882 388.348 213.21C378.35 212.256 370.915 203.797 370.915 193.754V47.9718Z" fill="#F7AB88"/>
<path d="M370.915 47.9718C370.915 33.3297 386.082 23.6962 399.249 30.1019C426.241 43.2337 467.055 63.6331 496.801 80.927C526.383 98.1257 567.952 118.96 595.752 132.537C609.249 139.128 610.996 157.474 598.476 165.771C573.687 182.199 536.431 204.396 506.917 211.309C471.698 219.559 416.332 215.882 388.348 213.21C378.35 212.256 370.915 203.797 370.915 193.754V47.9718Z" fill="#F7BCE6" fill-opacity="0.2"/>
<ellipse cx="483.313" cy="139.715" rx="22.4797" ry="22.4797" fill="#464646"/>
</svg>
